<?xml version="1.0" ?><svg enable-background="new 0 0 196.377 220.3965" id="bitbucket" version="1.1" viewBox="0 0 196.377 220.3965" xml:space="preserve" xmlns="http://www.w3.org/2000/svg" xmlns:xlink="http://www.w3.org/1999/xlink"><g><path d="M196.1309,31.3926c-0.1172-0.498-0.2422-0.9922-0.4004-1.4609c-0.8965-2.6836-2.5059-5.1602-4.918-7.5742   c-2.5547-2.5547-5.6719-4.7852-9.8164-7.0195c-4.291-2.3105-8.9863-4.2598-14.7773-6.1367   c-6.9238-2.2422-14.3086-4.0332-21.9473-5.3223c-4.5273-0.7656-8.9863-1.4238-13.252-1.9551   c-3.6504-0.457-7.4805-0.8184-11.3809-1.0742c-3.4785-0.2285-6.9629-0.3828-10.4453-0.5391l-4.4844-0.2012L103.9902,0   L92.6309,0.0059l-7.5801,0.4082c-3.1973,0.1699-6.3965,0.3379-9.5898,0.5527C70.625,1.2871,65.4492,1.8555,59.6348,2.7012   c-12.9824,1.8887-23.4824,4.375-33.0449,7.8281c-5.7402,2.0742-10.3242,4.252-14.4238,6.8535   c-2.9121,1.8477-5.2441,3.752-7.1289,5.8223c-2.4883,2.7363-3.998,5.5273-4.6113,8.5371L0,32.7148v2.6523l1.6035,9.5566   c0.8164,5.2109,1.6328,10.4219,2.4883,15.623c1.0586,6.4609,2.1758,12.9141,3.291,19.3672l8.5215,48.5664   c0.3477,2.0332,1.1367,3.9902,2.3438,5.8145c1.457,2.209,3.3359,4.2148,5.916,6.3125c3.5332,2.8672,7.5879,5.334,12.7598,7.7617   c6.1953,2.9082,12.9941,5.2578,20.7852,7.1816c6.1621,1.5234,12.5195,2.6543,19.4316,3.4551   c6.7891,0.793,13.8691,1.1914,21.123,1.1914c2.127,0,4.2676-0.0352,6.4219-0.1035c11.959-0.3828,22.9082-1.8086,33.4727-4.3574   c9.2012-2.2188,17.082-5.0352,24.0957-8.6094c4.127-2.1055,7.5625-4.3105,10.5059-6.7441   c1.7871-1.4805,3.2734-2.9727,4.5391-4.5605c1.877-2.3535,3.084-5.0684,3.5859-8.0723c0.668-4.002,1.3828-7.9941,2.0957-11.9863   l6.6602-37.9902c0.8711-5.0449,1.7383-10.0957,2.5879-15.1426c0.7891-4.6973,1.5801-9.3965,2.3379-14.0957   c0.3965-2.4395,0.7656-4.8828,1.1348-7.3281l0.4082-2.709l0.2676-5.623L196.1309,31.3926z M151.9824,32.918   c-2.7656,1.3086-5.7617,2.1328-8.0625,2.707c-4.2559,1.0605-8.8496,1.8828-14.457,2.5898   c-6.1016,0.7695-12.0684,1.2656-17.7402,1.4727c-2.9297,0.1094-5.8613,0.1934-8.8184,0.2773l-4.1484,0.1289l-4.5586-0.125   c-3.3887-0.0879-6.8047-0.1758-10.2148-0.3457c-8.873-0.4492-16.7051-1.293-23.9453-2.582   c-4.332-0.7734-8.9473-1.7227-13.3359-3.4336c-1.0645-0.4141-2.2012-0.957-3.4668-1.6562   c-0.2598-0.1445-0.5234-0.3281-0.8203-0.5898c0.3574-0.2949,0.8262-0.5957,1.457-0.9375c1.3535-0.7285,2.9492-1.375,5.0234-2.0312   c3.5352-1.123,7.4102-2.002,12.5645-2.8496c5.1484-0.8477,10.5684-1.4707,16.5703-1.9043   c9.3574-0.6777,18.5488-0.873,27.5332-0.584c3.0898,0.1035,6.1797,0.2051,9.2676,0.3906   c6.6172,0.3984,12.5938,1.0156,18.2734,1.8848c5.4883,0.8418,9.8438,1.7715,13.7051,2.9219   c1.7695,0.5273,3.6309,1.1328,5.2539,1.9922c0.6621,0.3535,1.4883,0.8164,2.1719,1.3379   C153.6875,32.0293,152.9844,32.4453,151.9824,32.918z" fill="#314E55"/><path d="M188.3477,33.2402c-0.0605-0.252-0.1152-0.5078-0.1973-0.7539c-0.5098-1.5195-1.459-2.9355-2.9961-4.4727   h-0.002c-1.9863-1.9902-4.5137-3.7793-7.9512-5.6328c-3.8535-2.0742-8.127-3.8457-13.4492-5.5703   c-6.5527-2.1211-13.5566-3.8184-20.8125-5.0449c-4.4141-0.7461-8.7578-1.3867-12.9102-1.9043   c-3.498-0.4375-7.1699-0.7832-10.9141-1.0273c-3.4238-0.2266-6.8516-0.3789-10.2793-0.5312l-4.6562-0.2129   c-0.2734-0.0156-0.5352-0.0488-0.793-0.0898L89.7676,8.1738l-4.2949,0.2305c-3.1602,0.166-6.3203,0.332-9.4785,0.543   c-4.627,0.3086-9.6016,0.8555-15.207,1.6719c-12.4355,1.8086-22.4375,4.1699-31.4805,7.4336   c-5.1738,1.8711-9.2598,3.8047-12.8555,6.0859c-2.334,1.4805-4.0801,2.8945-5.4941,4.4473   c-1.5801,1.7383-2.4473,3.3125-2.7305,4.9492C8.1738,33.8555,8.0898,34.1445,8,34.3926v0.3008   c0.1152,0.3555,0.1973,0.6699,0.248,0.9883l1.2598,8.002c0.8125,5.1914,1.627,10.3848,2.4785,15.5684   c1.0547,6.4395,2.168,12.8691,3.2793,19.2988l8.5254,48.582c0.1602,0.9453,0.5312,1.8457,1.1309,2.752   c1,1.5137,2.3613,2.9473,4.2871,4.5156c3.0117,2.4434,6.5449,4.582,11.1152,6.7266c5.7148,2.6836,12.0293,4.8613,19.3027,6.6582   c5.832,1.4414,11.8613,2.5117,18.4375,3.2754c8.3906,0.9785,17.2559,1.3301,26.3652,1.0371   c11.4062-0.3652,21.8262-1.7188,31.8535-4.1387c8.584-2.0703,15.8906-4.6738,22.3359-7.959   c3.5977-1.8359,6.5547-3.7266,9.041-5.7832c1.3574-1.1211,2.4629-2.2285,3.3828-3.3828c1.0352-1.2969,1.6719-2.7363,1.9512-4.4043   c0.6738-4.0293,1.3926-8.0527,2.1113-12.0742l6.6523-37.9434c0.8672-5.0312,1.7344-10.0703,2.5801-15.1074   c0.7891-4.6797,1.5762-9.3633,2.332-14.0469c0.3926-2.4141,0.7559-4.8281,1.1191-7.2422l0.5879-3.9414L188.3477,33.2402z    M151.9824,32.918c-2.7656,1.3086-5.7617,2.1328-8.0625,2.707c-4.2559,1.0605-8.8496,1.8828-14.457,2.5898   c-6.1016,0.7695-12.0684,1.2656-17.7402,1.4727c-2.9297,0.1094-5.8613,0.1934-8.8184,0.2773l-4.1484,0.1289l-4.5586-0.125   c-3.3887-0.0879-6.8047-0.1758-10.2148-0.3457c-8.873-0.4492-16.7051-1.293-23.9453-2.582   c-4.332-0.7734-8.9473-1.7227-13.3359-3.4336c-1.0645-0.4141-2.2012-0.957-3.4668-1.6562   c-0.2598-0.1445-0.5234-0.3281-0.8203-0.5898c0.3574-0.2949,0.8262-0.5957,1.457-0.9375c1.3535-0.7285,2.9492-1.375,5.0234-2.0312   c3.5352-1.123,7.4102-2.002,12.5645-2.8496c5.1484-0.8477,10.5684-1.4707,16.5703-1.9043   c9.3574-0.6777,18.5488-0.873,27.5332-0.584c3.0898,0.1035,6.1797,0.2051,9.2676,0.3906   c6.6172,0.3984,12.5938,1.0156,18.2734,1.8848c5.4883,0.8418,9.8438,1.7715,13.7051,2.9219   c1.7695,0.5273,3.6309,1.1328,5.2539,1.9922c0.6621,0.3535,1.4883,0.8164,2.1719,1.3379   C153.6875,32.0293,152.9844,32.4453,151.9824,32.918z" fill="#81A4E3"/><path d="M98.3223,73.1953c-0.002,0-0.0059,0-0.0059,0c-9.1992,0-17.8086,3.5488-24.2422,9.9922   c-6.2578,6.2676-9.6973,14.5547-9.6855,23.334c0.0234,18.2988,15.2539,33.1719,33.9609,33.1699c0.0117,0,0.0254,0,0.0371,0   c9.0312-0.0098,17.5312-3.4727,23.9395-9.75c6.4316-6.2988,9.9648-14.6602,9.9512-23.5391   C132.248,88.0898,117.0176,73.1953,98.3223,73.1953z" fill="#314E55"/><path d="M116.7266,124.2285c-4.9043,4.8047-11.4199,7.4551-18.3477,7.4629c-0.0117,0-0.0195,0-0.0293,0   c-14.2988,0-25.9434-11.291-25.9609-25.1816c-0.0098-6.6406,2.5996-12.916,7.3477-17.6699   c4.9219-4.9297,11.5195-7.6445,18.5781-7.6445c0.0039,0,0.0039,0,0.0078,0c14.2891,0,25.9336,11.3125,25.9551,25.2188   C124.2871,113.1211,121.6074,119.4473,116.7266,124.2285z" fill="#D8D8D8"/><path d="M98.3848,87.7773h-0.0039c-0.0098,0-0.0215,0-0.0332,0c-5.1816,0-10.0195,1.9824-13.623,5.5859   c-3.5059,3.5059-5.4336,8.1582-5.4258,13.0996c0.0117,10.2461,8.5137,18.6094,18.9512,18.6406c0.0176,0,0.0332,0,0.0508,0   c5.123,0,9.9258-1.9746,13.5273-5.5664c3.5234-3.5117,5.4648-8.1602,5.4668-13.0859   C117.3027,96.1797,108.8184,87.8027,98.3848,87.7773z" fill="#314E55"/><path d="M106.1797,113.8711c-2.0918,2.0859-4.8887,3.2324-7.877,3.2324c-0.0098,0-0.0215,0-0.0312,0   c-6.043-0.0195-10.9648-4.7949-10.9727-10.6504c-0.0039-2.8008,1.0918-5.4414,3.082-7.4336   c2.0938-2.0918,4.9219-3.2422,7.9688-3.2422c0.0039,0,0.0098,0,0.0156,0c6.0312,0.0137,10.9336,4.8008,10.9297,10.6699   C109.293,109.2344,108.1875,111.8711,106.1797,113.8711z" fill="#D8D8D8"/><path d="M167.3438,149.6895l-0.0117-0.002c-2.0547-0.3594-4.0332,0.125-6.0254,1.4766l-0.6992,0.4766   c-1.0957,0.748-2.1895,1.498-3.3223,2.1758c-6.6543,3.9668-14.0391,7.1152-22.5781,9.623   c-9.1738,2.7031-18.9395,4.3379-29.0234,4.8633c-5.4473,0.2832-10.8906,0.2598-16.1758-0.0781   c-5.1484-0.3242-10.2832-0.9512-15.2637-1.8672c-8.7578-1.6094-17.0195-4.0723-24.5605-7.3223   c-5.8867-2.5332-10.4512-5.0371-14.3516-7.8711c-0.709-0.5176-1.543-0.9395-2.4062-1.2168   c-2.0449-0.668-4.2363-0.4492-6.0098,0.5879c-1.7695,1.0312-2.9766,2.7324-3.4023,4.8008c-0.2305,1.1328-0.248,2.2891-0.0508,3.332   c1.0195,5.4727,2.0684,10.9453,3.1348,16.4102c0.8242,4.2227,1.6621,8.4434,2.5,12.6621l0.9121,4.6035   c0.4766,2.3945,1.416,4.6504,2.7891,6.7051c1.3691,2.0488,3.0879,3.916,5.252,5.707c3.1172,2.582,6.8438,4.8164,11.3906,6.832   c6.7286,2.9863,14.3614,5.1934,23.334,6.748c5.9922,1.0391,12.1836,1.6914,18.0391,1.8965l13.916,0.1641l0.8145-0.127   c4.8828-0.1992,9.8809-0.666,14.8516-1.3867c6.6133-0.9609,12.5723-2.293,18.2227-4.0723   c5.7969-1.8262,10.6816-3.9531,14.9316-6.5059c3.127-1.877,5.6543-3.8574,7.7227-6.0488c2.9062-3.0723,4.6602-6.3184,5.3594-9.916   l3.2891-16.5938c1.0957-5.6016,2.1738-11.2051,3.2266-16.8125c0.1855-0.9883,0.2109-2.0703,0.0781-3.1211   C172.8359,152.6562,170.5273,150.252,167.3438,149.6895z" fill="#314E55"/><path d="M162.0703,174.2109l-3.2891,16.5996c-0.4082,2.0957-1.4629,3.9844-3.3223,5.9512   c-1.5625,1.6562-3.5352,3.1875-6.0254,4.6836c-3.7051,2.2246-8.0293,4.1016-13.2168,5.7363   c-5.2363,1.6484-10.7871,2.8848-16.9688,3.7832c-4.7012,0.6836-9.4199,1.125-14.0801,1.3145   c-0.2793,0.0156-0.5605,0.0547-0.8672,0.1172H92.416c-0.3125-0.0625-0.623-0.1055-0.9238-0.1152   c-5.8652-0.2344-11.7031-0.8477-17.3496-1.8281c-8.3184-1.4414-15.3359-3.4609-21.457-6.1777   c-3.8711-1.7168-6.9883-3.5742-9.5332-5.6816c-1.5586-1.2891-2.7695-2.5957-3.7031-3.9902   c-0.7969-1.1953-1.3184-2.4434-1.5918-3.8184l-0.9121-4.6016c-0.8379-4.2109-1.6738-8.4238-2.4961-12.6367   c-0.9766-5.0039-1.9375-10.0117-2.8555-15.2246c4.1738,2.9121,8.9531,5.4902,14.9238,8.0605   c8.0918,3.4863,16.9336,6.125,26.2812,7.8418c5.291,0.9727,10.7441,1.6406,16.207,1.9844   c5.5879,0.3535,11.3379,0.3848,17.0918,0.082c10.709-0.5566,21.0957-2.2988,30.8672-5.1758   c9.1914-2.7012,17.1777-6.1113,24.4238-10.4316c1.2734-0.7617,2.502-1.5977,3.7305-2.4355l0.0215-0.0156   C164.1367,163.5586,163.1113,168.8867,162.0703,174.2109z" fill="#81A4E3"/><path d="M159.5293,25.5723c-1.2578-1.0371-2.6406-1.8203-3.7129-2.3926c-2.2461-1.1895-4.5586-1.9512-6.7227-2.5957   c-4.2227-1.2578-8.918-2.2617-14.7773-3.1602c-5.9238-0.9082-12.1426-1.5508-19.0039-1.9629   c-3.1602-0.1914-6.3242-0.2969-9.6992-0.4082c-9.0566-0.2891-18.5273-0.0859-28.1602,0.6055   c-6.2461,0.4531-11.9043,1.1035-17.2949,1.9902c-5.5488,0.9141-9.7695,1.875-13.6816,3.1191   c-2.5605,0.8105-4.5938,1.6406-6.4062,2.6172c-1.0918,0.5918-2.5078,1.4375-3.7715,2.75   c-3.1094,3.2324-3.0938,7.3555,0.0273,10.4902c0.9316,0.9434,1.9512,1.7246,3.0332,2.3242   c1.5879,0.8789,3.043,1.5703,4.4414,2.1133c5.0391,1.9648,10.3262,3.0508,14.834,3.8535   c7.5742,1.3496,15.7344,2.2305,24.9473,2.6953c3.4746,0.1738,6.9551,0.2656,10.4082,0.3535l4.7656,0.125l4.3789-0.1289   c2.9785-0.084,5.9316-0.168,8.8828-0.2773c5.9062-0.2188,12.1113-0.7324,18.4453-1.5312c5.9297-0.748,10.8203-1.625,15.3906-2.7656   c2.6582-0.6621,6.1484-1.627,9.543-3.2344c1.125-0.5293,2.793-1.3867,4.2949-2.7109c2.4941-2.1992,2.9844-4.4902,2.957-6.0234   C162.6211,29.8945,162.0566,27.6426,159.5293,25.5723z M151.9824,32.918c-2.7656,1.3086-5.7617,2.1328-8.0625,2.707   c-4.2559,1.0605-8.8496,1.8828-14.457,2.5898c-6.1016,0.7695-12.0684,1.2656-17.7402,1.4727   c-2.9297,0.1094-5.8613,0.1934-8.8184,0.2773l-4.1484,0.1289l-4.5586-0.125c-3.3887-0.0879-6.8047-0.1758-10.2148-0.3457   c-8.873-0.4492-16.7051-1.293-23.9453-2.582c-4.332-0.7734-8.9473-1.7227-13.3359-3.4336   c-1.0645-0.4141-2.2012-0.957-3.4668-1.6562c-0.2598-0.1445-0.5234-0.3281-0.8203-0.5898c0.3574-0.2949,0.8262-0.5957,1.457-0.9375   c1.3535-0.7285,2.9492-1.375,5.0234-2.0312c3.5352-1.123,7.4102-2.002,12.5645-2.8496c5.1484-0.8477,10.5684-1.4707,16.5703-1.9043   c9.3574-0.6777,18.5488-0.873,27.5332-0.584c3.0898,0.1035,6.1797,0.2051,9.2676,0.3906   c6.6172,0.3984,12.5938,1.0156,18.2734,1.8848c5.4883,0.8418,9.8438,1.7715,13.7051,2.9219   c1.7695,0.5273,3.6309,1.1328,5.2539,1.9922c0.6621,0.3535,1.4883,0.8164,2.1719,1.3379   C153.6875,32.0293,152.9844,32.4453,151.9824,32.918z" fill="#314E55"/></g></svg>